<?xml version="1.0"?>
<svg version="1.1" xmlns="http://www.w3.org/2000/svg" width="275px" height="218px" style="border: dashed 2px #aaa"><path fill="#bc28e0" d="M51.51904296875,118.83642578125q0-4.283203125,0.236572265625-8.466796875t0.585205078125-8.466796875q0.099609375-1.12060546875,0.12451171875-2.16650390625t0.236572265625-1.830322265625t0.7470703125-1.2451171875t1.656005859375-0.460693359375q0.72216796875,0,1.506591796875,0.2490234375t0.784423828125,1.17041015625q0,3.46142578125-0.286376953125,6.810791015625t-0.385986328125,6.661376953125q2.71435546875-3.06298828125,5.80224609375-5.715087890625t6.54931640625-5.241943359375q0.498046875-0.3486328125,1.27001953125-0.37353515625q0.2490234375,0,0.435791015625,0.02490234375t0.385986328125,0.07470703125q0.2490234375,0.099609375,0.510498046875,0.236572265625t0.261474609375,0.385986328125q0,0.19921875-0.22412109375,0.3486328125q-2.58984375,2.091796875-5.117431640625,4.25830078125t-4.818603515625,4.6318359375q0.298828125,0.57275390625,0.510498046875,1.07080078125t0.460693359375,1.07080078125q2.091796875,4.95556640625,3.573486328125,10.147705078125t3.150146484375,10.297119140625q0.1494140625,0.57275390625,0.435791015625,1.182861328125t0.535400390625,1.22021484375t0.435791015625,1.1455078125t0.186767578125,0.884033203125q0,0.4482421875-0.286376953125,0.709716796875t-0.659912109375,0.410888671875t-0.809326171875,0.19921875t-0.809326171875,0.0498046875q-0.87158203125,0-1.556396484375-0.2490234375t-1.083251953125-1.12060546875q-1.8427734375-5.876953125-3.548583984375-11.75390625t-3.448974609375-11.853515625q-0.57275390625,0.57275390625-1.1455078125,1.431884765625t-1.0458984375,1.581298828125q0,3.7353515625,0.17431640625,7.4208984375t0.59765625,7.4208984375q0.099609375,1.07080078125,0.336181640625,2.1416015625t0.236572265625,2.19140625q0,0.82177734375-0.8466796875,1.1455078125t-1.86767578125,0.32373046875q-1.12060546875,0-1.680908203125-0.22412109375t-0.796875-0.585205078125t-0.286376953125-0.796875t-0.1494140625-0.834228515625q-0.57275390625-3.9345703125-0.72216796875-7.781982421875t-0.1494140625-7.732177734375z M77.035727539062,118.23876953125q0-1.02099609375,0.361083984375-1.71826171875t1.531494140625-0.697265625q0.4482421875,0,1.12060546875,0.136962890625t0.77197265625,0.684814453125q0.2490234375,1.46923828125,0.27392578125,3.1875t0.17431640625,3.2373046875q0.57275390625-1.12060546875,1.46923828125-2.41552734375t2.0419921875-2.390625t2.490234375-1.81787109375t2.7392578125-0.72216796875q0.099609375,0,0.37353515625,0.07470703125t0.510498046875,0.211669921875t0.286376953125,0.311279296875t-0.27392578125,0.32373046875q-0.099609375,0.298828125-0.42333984375,0.361083984375t-0.57275390625,0.062255859375q-0.1494140625,0-0.47314453125-0.12451171875q-1.8427734375,0.97119140625-3.1376953125,2.6396484375t-2.11669921875,3.697998046875t-1.1953125,4.283203125t-0.37353515625,4.395263671875q0,1.07080078125-0.485595703125,1.294921875t-1.556396484375,0.22412109375q-0.57275390625,0-1.207763671875-0.12451171875t-0.884033203125-0.796875q-0.4482421875-1.41943359375-0.734619140625-3.26220703125t-0.435791015625-3.797607421875t-0.211669921875-3.847412109375t-0.062255859375-3.41162109375z M94.733076171875,124.61376953125q0-2.291015625,0.535400390625-4.494873046875t0.908935546875-4.395263671875q0.099609375-0.57275390625,0.784423828125-0.709716796875t1.157958984375-0.136962890625q0.82177734375,0,1.31982421875,0.2490234375q0.19921875,0.099609375,0.37353515625,0.22412109375t0.17431640625,0.32373046875q0,2.1416015625-0.510498046875,4.18359375t-0.510498046875,4.3330078125q0,0.77197265625,0.112060546875,1.456787109375t0.211669921875,1.357177734375l0.1494140625,0.72216796875q0,0.19921875,0.02490234375,0.3486328125t0.07470703125,0.3486328125q0,0.4482421875-0.635009765625,0.610107421875t-1.108154296875,0.161865234375q-0.72216796875,0-1.332275390625-0.286376953125t-0.958740234375-0.983642578125l-0.3486328125-0.72216796875q-0.298828125-0.57275390625-0.298828125-1.282470703125t-0.12451171875-1.307373046875z M96.326826171875,109.62255859375l0-0.47314453125q0-1.17041015625,0.585205078125-2.091796875t1.755615234375-0.92138671875q0.1494140625,0,0.286376953125,0.02490234375t0.286376953125,0.02490234375q0.298828125,0.0498046875,0.784423828125,0.236572265625t0.485595703125,0.585205078125l0,0.0498046875q-0.099609375,0.19921875-0.12451171875,0.410888671875t-0.12451171875,0.361083984375l0.0498046875-0.0498046875q-0.298828125,0.77197265625-0.485595703125,1.2451171875t-0.410888671875,0.759521484375t-0.560302734375,0.410888671875t-0.958740234375,0.12451171875q-0.099609375,0-0.3486328125-0.02490234375t-0.535400390625-0.099609375t-0.485595703125-0.19921875t-0.19921875-0.37353515625z M105.60718261719,118.78662109375q0-1.02099609375,0.59765625-1.755615234375t1.456787109375-1.1953125t1.880126953125-0.684814453125t1.892578125-0.22412109375q0.67236328125,0,1.79296875,0.19921875t2.19140625,0.59765625t1.855224609375,1.0458984375t0.784423828125,1.51904296875q0,0.3984375-0.298828125,0.709716796875t-0.62255859375,0.311279296875q-0.67236328125,0-1.22021484375-0.435791015625t-1.133056640625-0.92138671875t-1.282470703125-0.92138671875t-1.56884765625-0.435791015625t-1.581298828125,0.560302734375t-0.709716796875,1.481689453125q0,1.51904296875,1.07080078125,2.975830078125t2.353271484375,3.06298828125t2.353271484375,3.374267578125t1.07080078125,3.90966796875q0,0.92138671875-0.385986328125,1.556396484375t-1.02099609375,1.033447265625t-1.431884765625,0.610107421875t-1.5439453125,0.211669921875q-0.82177734375,0-1.91748046875-0.385986328125t-2.06689453125-1.02099609375t-1.631103515625-1.481689453125t-0.659912109375-1.76806640625q0-0.4482421875,0.635009765625-0.57275390625t0.933837890625-0.12451171875q0.1494140625,0,0.460693359375,0.099609375t0.610107421875,0.22412109375t0.535400390625,0.27392578125t0.186767578125,0.32373046875q0.2490234375,0.298828125,0.759521484375,0.884033203125t1.02099609375,0.9462890625t0.896484375,0.261474609375t0.385986328125-1.12060546875q0-1.9423828125-1.0458984375-3.573486328125t-2.278564453125-3.1875t-2.278564453125-3.087890625t-1.0458984375-3.274658203125z M123.1551171875,127.92578125l0-2.3408203125q0-1.27001953125,0.062255859375-3.598388671875t0.161865234375-5.10498046875t0.27392578125-5.789794921875t0.3984375-5.690185546875t0.535400390625-4.793701171875t0.709716796875-3.1376953125q0.2490234375-0.57275390625,0.82177734375-0.72216796875t1.12060546875-0.1494140625q0.87158203125,0,1.531494140625,0.385986328125t0.659912109375,1.406982421875l-0.4482421875,0.498046875q-0.87158203125,5.75244140625-1.12060546875,11.5546875t-0.3486328125,11.6044921875q0.62255859375-0.97119140625,1.406982421875-1.905029296875t1.7431640625-1.656005859375t2.06689453125-1.157958984375t2.427978515625-0.435791015625q1.693359375,0,2.801513671875,1.02099609375t1.830322265625,2.652099609375t1.07080078125,3.648193359375t0.535400390625,4.0341796875t0.261474609375,3.822509765625t0.22412109375,3.000732421875q-0.47314453125,0.6474609375-1.39453125,0.6474609375l-0.07470703125,0q-0.3984375,0-0.87158203125-0.099609375t-0.62255859375-0.498046875l0.0498046875,0.0498046875q-0.3486328125-0.77197265625-0.47314453125-2.228759765625t-0.19921875-3.21240234375t-0.261474609375-3.598388671875t-0.560302734375-3.3369140625t-1.095703125-2.46533203125t-1.9423828125-1.02099609375l-0.1494140625,0q-1.46923828125,0-2.46533203125,0.896484375q-1.0458984375,0.9462890625-1.693359375,2.490234375t-0.99609375,3.4365234375t-0.535400390625,3.648193359375t-0.286376953125,3.1875t-0.2490234375,2.104248046875q-0.1494140625,0.57275390625-0.884033203125,0.759521484375t-1.257568359375,0.186767578125q-1.22021484375,0-1.9921875-0.697265625q-0.57275390625-1.36962890625-0.67236328125-3.41162109375t-0.099609375-3.984375z M166.38583496094,132.70703125q1.07080078125-4.85595703125,3.087890625-9.28857421875t4.15869140625-8.865234375q-1.17041015625-3.9345703125-2.4404296875-8.055908203125t-3.06298828125-7.806884765625q-0.19921875-0.1494140625-0.410888671875-0.37353515625t-0.211669921875-0.498046875q0-0.3486328125,0.286376953125-0.57275390625t0.67236328125-0.361083984375t0.796875-0.186767578125t0.659912109375-0.0498046875q2.091796875,0,3.01318359375,1.9423828125q1.02099609375,2.19140625,1.905029296875,4.494873046875t1.705810546875,4.594482421875q0.298828125-0.67236328125,0.709716796875-1.81787109375t0.87158203125-2.41552734375t1.02099609375-2.577392578125t1.22021484375-2.378173828125t1.456787109375-1.730712890625t1.71826171875-0.659912109375t1.1953125,0.17431640625t0.22412109375,0.485595703125t-0.336181640625,0.684814453125t-0.435791015625,0.796875q-0.4482421875,1.07080078125-1.083251953125,2.901123046875t-1.406982421875,3.947021484375t-1.606201171875,4.30810546875t-1.705810546875,3.9345703125q1.79296875,5.876953125,2.96337890625,11.865966796875t2.689453125,11.940673828125q0.1494140625,0.57275390625,0.460693359375,1.207763671875t0.311279296875,1.207763671875q0,0.3486328125-0.336181640625,0.5478515625t-0.77197265625,0.336181640625t-0.859130859375,0.186767578125t-0.697265625,0.0498046875q-1.31982421875,0-2.054443359375-0.585205078125t-1.17041015625-1.481689453125t-0.62255859375-1.96728515625t-0.336181640625-2.091796875q-0.62255859375-3.51123046875-1.307373046875-7.010009765625t-1.531494140625-7.010009765625q-0.77197265625,1.7431640625-1.307373046875,3.2373046875t-0.99609375,2.926025390625t-0.896484375,2.888671875t-0.983642578125,3.125244140625q-0.2490234375,0.72216796875-0.9462890625,0.87158203125t-1.294921875,0.1494140625q-0.62255859375,0-1.332275390625-0.1494140625t-0.983642578125-0.87158203125z"/><path fill="#" d=""/></svg>
