<?xml version="1.0" encoding="UTF-8"?>
<svg version="1.1" xmlns="http://www.w3.org/2000/svg" width="1536" height="1024">
<path d="M0 0 C506.88 0 1013.76 0 1536 0 C1536 337.92 1536 675.84 1536 1024 C1029.12 1024 522.24 1024 0 1024 C0 686.08 0 348.16 0 0 Z " fill="#060606" transform="translate(0,0)"/>
<path d="M0 0 C15.51 0 31.02 0 47 0 C47 35.31 47 70.62 47 107 C47.66 107 48.32 107 49 107 C49.34611328 106.20335937 49.34611328 106.20335937 49.69921875 105.390625 C51.41058844 102.24540502 53.5842718 99.53685443 55.8125 96.75 C56.29460937 96.1415625 56.77671875 95.533125 57.2734375 94.90625 C61.52577624 89.55548105 65.84210466 84.2566434 70.16357422 78.96166992 C73.63746835 74.69909406 77.05727648 70.39960212 80.4375 66.0625 C85.65558176 59.37593645 91.04558208 52.83767652 96.44921875 46.30078125 C104.79720868 36.20060321 113.04473951 26.02740633 121.07421875 15.671875 C121.76354492 14.86508301 121.76354492 14.86508301 122.46679688 14.04199219 C124.15261558 11.92381861 124.15261558 11.92381861 125.53320312 8.93457031 C127.90355442 4.96955524 129.84012164 2.14058921 134 0 C142.83327745 -1.92874141 152.13830944 -1.18824426 161.10968018 -0.82397461 C164.48107127 -0.70022386 167.85354518 -0.64620624 171.2265625 -0.5859375 C177.82052618 -0.45416881 184.40966568 -0.25381751 191 0 C188.66709368 3.99728707 186.034949 7.45706862 183 10.9375 C179.11477851 15.45853195 175.34362003 20.04185133 171.6875 24.75 C167.00641781 30.76720789 162.19292338 36.66478769 157.33496094 42.53979492 C153.34693173 47.36291962 149.38061788 52.20258631 145.4375 57.0625 C144.90817871 57.71484619 144.37885742 58.36719238 143.83349609 59.03930664 C142.76432368 60.35745326 141.6953134 61.67573139 140.62646484 62.99414062 C137.83626994 66.43518555 135.04329498 69.87397141 132.25 73.3125 C131.70625732 73.9818457 131.16251465 74.65119141 130.60229492 75.34082031 C125.31853507 81.84267078 120.01879281 88.33139924 114.6953125 94.80078125 C113.17728534 96.64848098 111.66530365 98.50116833 110.16015625 100.359375 C108.73612903 102.10013883 107.28585479 103.81980306 105.80859375 105.515625 C105.14988281 106.29421875 104.49117188 107.0728125 103.8125 107.875 C102.92498047 108.89207031 102.92498047 108.89207031 102.01953125 109.9296875 C100.75680943 111.96650245 100.75680943 111.96650245 101.44140625 114.2578125 C103.64714312 118.13858263 106.33827696 121.52097784 109.125 125 C110.40205965 126.61768647 111.67806004 128.23620959 112.953125 129.85546875 C113.61892578 130.69899902 114.28472656 131.5425293 114.97070312 132.41162109 C118.31598244 136.67854257 121.59561856 140.99484946 124.875 145.3125 C125.54160645 146.1890625 126.20821289 147.065625 126.89501953 147.96875 C128.25290174 149.75449382 129.61048578 151.5404644 130.96777344 153.32666016 C134.30803231 157.72068162 137.65432244 162.11010399 141 166.5 C142.32423335 168.23827013 143.64845206 169.9765514 144.97265625 171.71484375 C147.72923201 175.33297584 150.48723162 178.95001728 153.24609375 182.56640625 C159.37025051 190.59585622 165.48709297 198.62887829 171.53125 206.71875 C174.9925947 211.33387626 178.5013104 215.91317628 182 220.5 C183.38549775 222.31894866 184.77091626 224.13795768 186.15625 225.95703125 C188.44239403 228.95871595 190.73323365 231.95661753 193.03125 234.94921875 C193.85437723 236.02848527 194.6773148 237.1078965 195.5 238.1875 C196.1909375 239.08855469 196.881875 239.98960937 197.59375 240.91796875 C199 243 199 243 199 245 C191.23757646 245.30290555 183.47656635 245.53301598 175.70969677 245.67355824 C172.10160548 245.74106547 168.49759001 245.83236685 164.8918457 245.98071289 C139.67206775 246.99103987 139.67206775 246.99103987 133.81811523 242.33837891 C130.85023607 239.23974658 128.96125308 235.79661955 127 232 C125.89139505 230.51105851 124.75372945 229.04279964 123.57421875 227.609375 C122.60927356 226.32494484 121.64701286 225.03849336 120.6875 223.75 C116.19789583 217.79830067 111.57798414 211.9830787 106.8125 206.25 C101.90082558 200.34096659 97.14072691 194.35270656 92.48828125 188.23828125 C89.73586357 184.6345318 86.90225329 181.09759221 84.0625 177.5625 C78.78840942 170.99535225 73.57044617 164.38647383 68.37646484 157.75585938 C66.47753026 155.33352211 64.57452193 152.91439892 62.67138672 150.49536133 C61.28846228 148.73642017 59.90779008 146.97573003 58.52734375 145.21484375 C56.94588583 143.19876847 55.35432925 141.19263084 53.75390625 139.19140625 C53.11324219 138.38574219 52.47257812 137.58007812 51.8125 136.75 C51.26207031 136.06421875 50.71164062 135.3784375 50.14453125 134.671875 C49 133 49 133 49 131 C48.34 131 47.68 131 47 131 C47 168.62 47 206.24 47 245 C31.49 245 15.98 245 0 245 C0 164.15 0 83.3 0 0 Z " fill="#FEFEFE" transform="translate(383,386)"/>
<path d="M0 0 C15.18 0 30.36 0 46 0 C46.33 31.35 46.66 62.7 47 95 C49.31 92.36 51.62 89.72 54 87 C64.2549266 75.95918183 79.39542788 68.9445582 94.359375 67.7265625 C111.35729067 67.2355116 127.51243153 72.28232073 140.5625 83.3125 C151.8087771 94.31306012 157.95578738 109.14467278 158.22363281 124.80322266 C158.22467654 126.92351337 158.21745056 129.04381993 158.203125 131.1640625 C158.21368832 133.52865128 158.22544734 135.89323496 158.23828125 138.2578125 C158.24849138 141.91887298 158.25025357 145.57920951 158.22998047 149.24023438 C158.11639421 176.16384114 162.7478246 211.57320231 182.2109375 232.44140625 C188.4008986 237.83397061 194.89281184 241.62330767 203 243 C203 243.33 203 243.66 203 244 C172.98621544 245.30117563 172.98621544 245.30117563 163.35205078 236.4934082 C159.13413573 232.42994716 155.62033281 228.09020006 152.25 223.3125 C151.44296631 222.18255615 151.44296631 222.18255615 150.61962891 221.02978516 C147.13144662 216.11095246 143.71701156 211.14236534 140.3203125 206.16015625 C139.91593964 205.56716232 139.51156677 204.9741684 139.09494019 204.36320496 C137.01614639 201.30814187 134.95196862 198.24438615 132.90966797 195.16479492 C127.96158905 187.69843419 127.96158905 187.69843419 122.375 180.703125 C113.39177902 170.20242079 113.81858484 159.24224218 114.02734375 145.9765625 C114.17215397 134.81335353 112.02315801 124.24602351 104 116 C96.80033632 110.27105147 87.53275249 107.26055714 78.31640625 107.65625 C68.10580908 109.17148196 61.65102821 114.09058134 54.75 121.375 C48.05967482 131.41048777 46.70999023 142.50648092 46.68115234 154.33666992 C46.66608391 155.78748459 46.66608391 155.78748459 46.65071106 157.26760864 C46.62015145 160.42189003 46.60292046 163.57608765 46.5859375 166.73046875 C46.5672039 168.9343588 46.54762889 171.13824184 46.5272522 173.34211731 C46.47615655 179.11068572 46.43641064 184.87927732 46.39910889 190.64794922 C46.35184812 197.58654773 46.29034786 204.52503317 46.23126221 211.46353912 C46.14332544 221.97564654 46.07336383 232.48773532 46 243 C30.82 243 15.64 243 0 243 C0 162.81 0 82.62 0 0 Z " fill="#FDFDFD" transform="translate(978,386)"/>
<path d="M0 0 C9.27494205 8.88215079 18.53120811 20.52317074 19.6484375 33.765625 C19.76566162 35.09775024 19.76566162 35.09775024 19.88525391 36.45678711 C19.93858887 37.12718018 19.99192383 37.79757324 20.046875 38.48828125 C13.89076056 38.73598921 7.73755802 38.91715496 1.57763672 39.03759766 C-0.51597623 39.08780809 -2.60923982 39.15599587 -4.70166016 39.24267578 C-22.1742906 39.94822143 -22.1742906 39.94822143 -26.59375 36.32104492 C-28.12148285 33.73147189 -29.03041602 31.33665607 -29.953125 28.48828125 C-33.88898233 23.39054446 -39.83840959 21.53284499 -45.953125 20.48828125 C-54.78139153 19.70903706 -63.24772245 19.63893524 -70.953125 24.48828125 C-74.9303683 28.01313669 -77.63984401 32.0864603 -78.328125 37.36328125 C-77.83297783 41.48950768 -76.68150081 43.35064907 -73.953125 46.48828125 C-65.28239531 52.15760451 -54.30631408 53.57570533 -44.31192017 55.68629456 C-42.21912493 56.12844204 -40.12711773 56.57418962 -38.03515625 57.02026367 C-35.24736991 57.61454289 -32.45697611 58.1933034 -29.6640625 58.76293945 C-17.36719131 61.32838257 -6.10244971 64.88699376 4.046875 72.48828125 C4.913125 73.06578125 5.779375 73.64328125 6.671875 74.23828125 C16.20819564 83.27269028 21.15288272 94.6722403 21.58789062 107.64257812 C21.70726574 123.8016283 17.83824596 135.27019391 6.734375 147.23828125 C0.15434185 153.39984738 -7.27053435 156.83285993 -15.703125 159.73828125 C-16.40477783 159.98457275 -17.10643066 160.23086426 -17.8293457 160.48461914 C-43.07458483 168.70472569 -74.11592883 167.286141 -97.953125 155.48828125 C-112.72724348 147.91294614 -122.56377496 136.99631571 -128.2265625 121.38671875 C-129.20103408 117.4993106 -129.51055026 113.47145393 -129.953125 109.48828125 C-114.443125 109.48828125 -98.933125 109.48828125 -82.953125 109.48828125 C-81.633125 112.78828125 -80.313125 116.08828125 -78.953125 119.48828125 C-73.00062148 125.90764779 -66.37657256 128.49516618 -57.6484375 128.921875 C-55.79180936 128.94493052 -53.93478914 128.94572808 -52.078125 128.92578125 C-51.11084473 128.9196582 -50.14356445 128.91353516 -49.14697266 128.90722656 C-41.21029306 128.73332325 -33.89339897 127.96908864 -27.7421875 122.53515625 C-24.81511908 119.18628321 -24.61184432 115.91245152 -24.66796875 111.55078125 C-25.2358975 107.44302263 -27.66665553 104.66399877 -30.64331055 101.94360352 C-33.65293945 100.04735599 -36.73474429 99.30008415 -40.16015625 98.515625 C-40.86243851 98.34755844 -41.56472076 98.17949188 -42.2882843 98.0063324 C-50.73120383 96.0150098 -59.24066017 94.30650333 -67.75219727 92.63647461 C-85.88560241 89.06184919 -103.01405706 83.46202866 -114.953125 68.48828125 C-123.3956409 55.0117186 -125.29052365 40.17751587 -122.33984375 24.53515625 C-118.45662884 10.3708305 -108.25015342 0.07226376 -95.7890625 -7.09765625 C-67.23670953 -21.33450443 -25.1743202 -21.41149191 0 0 Z " fill="#FDFDFD" transform="translate(931.953125,469.51171875)"/>
<path d="M0 0 C0 15.51 0 31.02 0 47 C-7.59 47 -15.18 47 -23 47 C-33.99698525 49.49931483 -42.24254679 54.48143192 -48.72265625 63.8515625 C-56.98532431 77.74901642 -56.31850533 93.88581868 -56.4140625 109.51953125 C-56.43280967 111.47394089 -56.45238561 113.42834273 -56.4727478 115.38273621 C-56.52370054 120.4838091 -56.56352161 125.58490813 -56.60089111 130.68609619 C-56.6482663 136.82963821 -56.70970362 142.9730543 -56.76873779 149.11649323 C-56.85649969 158.41094361 -56.9265858 167.7053754 -57 177 C-71.85 177 -86.7 177 -102 177 C-102 119.91 -102 62.82 -102 4 C-87.48 4 -72.96 4 -58 4 C-57.67 12.91 -57.34 21.82 -57 31 C-55.2984375 28.525 -55.2984375 28.525 -53.5625 26 C-44.21155851 13.22638466 -31.02103431 3.9784619 -15.25 1.3828125 C-10.15946627 0.64490286 -5.15128292 0 0 0 Z " fill="#FDFDFD" transform="translate(703,453)"/>
<path d="M0 0 C15.18 0 30.36 0 46 0 C46 57.09 46 114.18 46 173 C30.82 173 15.64 173 0 173 C0 115.91 0 58.82 0 0 Z " fill="#FCFCFC" transform="translate(725,457)"/>
<path d="M0 0 C7.24467224 5.16096651 13.64592859 11.88572633 15.80078125 20.7109375 C17.09714762 31.55200994 16.4201633 41.33223887 9.8828125 50.359375 C4.96658179 56.29365703 0.00902781 60.01517049 -7.19921875 62.7109375 C-7.87855469 62.96617187 -8.55789063 63.22140625 -9.2578125 63.484375 C-15.5214347 65.42521568 -21.87695018 65.25936946 -27.84765625 62.4765625 C-30.39268926 60.9938706 -32.80041602 59.41905048 -35.19921875 57.7109375 C-35.823125 57.27136719 -36.44703125 56.83179688 -37.08984375 56.37890625 C-40.45261984 53.80785171 -41.90510593 51.6857126 -43.19921875 47.7109375 C-44.2013346 45.68236291 -45.24556031 43.67923 -46.296875 41.67578125 C-49.73249766 34.19475009 -49.4366092 24.12085107 -46.76171875 16.4609375 C-42.29898786 6.95610363 -34.98104642 0.34322238 -25.19921875 -3.2890625 C-16.72812344 -5.809254 -7.59449037 -4.45147748 0 0 Z " fill="#A125B5" transform="translate(1200.19921875,565.2890625)"/>
<path d="M0 0 C7.19757275 4.82995013 11.64729624 10.63109663 14 19 C15.58059734 28.17962304 13.14759947 35.36345133 8 43 C2.83267874 48.86092142 -3.88740915 52.54867143 -11.69921875 53.23828125 C-21.96968666 53.49336477 -28.72697032 50.92384721 -36.2734375 43.93359375 C-42.15246884 37.34961069 -43.43383681 29.74222456 -43.33984375 21.16796875 C-42.53520588 13.66726399 -38.44405746 7.47818949 -32.9296875 2.47265625 C-23.63078728 -4.62387286 -10.37948733 -5.64766222 0 0 Z " fill="#FDFDFD" transform="translate(762,384)"/>
<path d="M0 0 C3.1917802 3.1917802 5.32617822 5.77861699 7.73828125 9.4921875 C8.43518066 10.5553418 9.13208008 11.61849609 9.85009766 12.71386719 C10.55956543 13.79829102 11.2690332 14.88271484 12 16 C31.15546378 48.89213297 31.15546378 48.89213297 59 73 C59 73.33 59 73.66 59 74 C39.53 74 20.06 74 0 74 C0 49.58 0 25.16 0 0 Z " fill="#A325B7" transform="translate(1093,555)"/>
<path d="M0 0 C0.66 0 1.32 0 2 0 C2.86398484 2.97953596 3.11382663 5.59747286 3.08229065 8.69500732 C3.07525116 9.63447708 3.06821167 10.57394684 3.06095886 11.54188538 C3.04801285 12.56543625 3.03506683 13.58898712 3.02172852 14.64355469 C3.01212097 15.72678513 3.00251343 16.81001556 2.99261475 17.92607117 C2.95962245 21.50807185 2.91929075 25.08995066 2.87890625 28.671875 C2.85460537 31.15480112 2.8307618 33.63773176 2.80735779 36.1206665 C2.75093774 41.98900317 2.68990407 47.85727768 2.62663645 53.72554421 C2.54781082 61.06307754 2.47614609 68.40067656 2.40429688 75.73828125 C2.27528031 88.8255828 2.13989225 101.91281042 2 115 C1.01 114.67 0.02 114.34 -1 114 C-0.67 76.38 -0.34 38.76 0 0 Z " fill="#393939" transform="translate(430,517)"/>
<path d="M0 0 C0.80949722 2.84408069 1.12392789 5.36197811 1.12025452 8.31536865 C1.12162918 9.17069687 1.12300385 10.02602509 1.12442017 10.90727234 C1.12082489 11.83731583 1.11722961 12.76735931 1.11352539 13.72558594 C1.11367142 14.71128067 1.11381744 15.6969754 1.1139679 16.71253967 C1.11327136 19.96984052 1.10549103 23.22708415 1.09765625 26.484375 C1.09579115 28.74310271 1.09436768 31.00183082 1.09336853 33.26055908 C1.08955059 39.20519121 1.07972645 45.14979891 1.06866455 51.09442139 C1.05843491 57.16060048 1.05386758 63.22678352 1.04882812 69.29296875 C1.03810356 81.19532324 1.02103578 93.09765959 1 105 C0.01 104.67 -0.98 104.34 -2 104 C-2.04632672 91.17837207 -2.08187097 78.35676403 -2.10362434 65.53506947 C-2.1140645 59.58153643 -2.12822806 53.62806064 -2.15087891 47.67456055 C-2.17259883 41.92983627 -2.18456688 36.18516706 -2.18975449 30.44040489 C-2.19345176 28.24794332 -2.20067151 26.05548479 -2.21146011 23.86304665 C-2.22596357 20.79380385 -2.2279784 17.72478909 -2.22705078 14.65551758 C-2.23424133 13.74777084 -2.24143188 12.84002411 -2.24884033 11.9047699 C-2.23437779 7.48670231 -2.08748602 4.01596949 0 0 Z " fill="#0F0F0F" transform="translate(1026,525)"/>
<path d="M0 0 C0.99 0.495 0.99 0.495 2 1 C2.37890625 2.75 2.37890625 2.75 2.5625 5 C2.63726563 5.804375 2.71203125 6.60875 2.7890625 7.4375 C2.9296875 9.14583333 3.0703125 10.85416667 3.2109375 12.5625 C3.28570313 13.366875 3.36046875 14.17125 3.4375 15 C3.49808594 15.7425 3.55867187 16.485 3.62109375 17.25 C3.80865234 18.11625 3.80865234 18.11625 4 19 C4.66 19.33 5.32 19.66 6 20 C4.56375905 24.30872286 3.45397435 25.54602565 0 29 C0 19.43 0 9.86 0 0 Z " fill="#111111" transform="translate(645,456)"/>
<path d="M0 0 C0 0.99 0 1.98 0 3 C-6.6 3 -13.2 3 -20 3 C-20.33 3.66 -20.66 4.32 -21 5 C-23.5625 5.625 -23.5625 5.625 -26 6 C-19.02752756 -1.49750801 -9.3981854 -0.33040496 0 0 Z " fill="#151515" transform="translate(886,489)"/>
<path d="M0 0 C0.33 0 0.66 0 1 0 C1.33 10.56 1.66 21.12 2 32 C2.99 32 3.98 32 5 32 C4.01 34.475 4.01 34.475 3 37 C2.01 37 1.02 37 0 37 C0 24.79 0 12.58 0 0 Z " fill="#0C0C0C" transform="translate(432,452)"/>
<path d="M0 0 C0.33 0 0.66 0 1 0 C1.36351562 1.51980469 1.36351562 1.51980469 1.734375 3.0703125 C2.07230396 4.42202833 2.41088024 5.77358243 2.75 7.125 C2.90726563 7.79015625 3.06453125 8.4553125 3.2265625 9.140625 C4.41705922 13.8110352 6.12726353 17.12542686 9 21 C8.67 21.66 8.34 22.32 8 23 C2.31418569 15.75012674 -1.64285822 10.48215881 -1 1 C-0.67 0.67 -0.34 0.34 0 0 Z " fill="#0F0B10" transform="translate(1150,593)"/>
<path d="M0 0 C6.8893894 -0.54677694 13.26616233 0.5902994 20 2 C20 2.33 20 2.66 20 3 C12.74 3 5.48 3 -2 3 C-1.34 2.01 -0.68 1.02 0 0 Z " fill="#151414" transform="translate(871,596)"/>
<path d="M0 0 C-12.52631579 6.71052632 -12.52631579 6.71052632 -18.234375 5.54296875 C-18.81703125 5.36378906 -19.3996875 5.18460938 -20 5 C-17.61426621 3.10786631 -15.92824652 1.97608217 -13 1 C-13 1.66 -13 2.32 -13 3 C-12.22914062 2.69964844 -11.45828125 2.39929688 -10.6640625 2.08984375 C-9.66117188 1.70957031 -8.65828125 1.32929687 -7.625 0.9375 C-6.62726563 0.55464844 -5.62953125 0.17179688 -4.6015625 -0.22265625 C-2 -1 -2 -1 0 0 Z " fill="#B92CD0" transform="translate(1201,624)"/>
<path d="M0 0 C1.16402344 -0.02126953 1.16402344 -0.02126953 2.3515625 -0.04296875 C4.375 0.1875 4.375 0.1875 6.375 2.1875 C5.375 3.1875 5.375 3.1875 2.9765625 3.25 C0.99739354 3.20844265 -0.98177315 3.16677656 -2.9609375 3.125 C-5.73056013 3.05941426 -5.73056013 3.05941426 -8.625 4.1875 C-8.625 3.1975 -8.625 2.2075 -8.625 1.1875 C-5.6969073 0.3518571 -3.04323857 0.02544514 0 0 Z " fill="#222222" transform="translate(1058.625,492.8125)"/>
<path d="M0 0 C3.41992779 2.27995186 3.6114352 3.01495914 4.6875 6.8125 C4.93886719 7.66457031 5.19023438 8.51664062 5.44921875 9.39453125 C6.00228387 12.01080386 6.10048484 14.33475917 6 17 C5.01 16.67 4.02 16.34 3 16 C2.05078125 13.1640625 2.05078125 13.1640625 1.3125 9.625 C1.06113281 8.46226562 0.80976562 7.29953125 0.55078125 6.1015625 C0 3 0 3 0 0 Z " fill="#0F0F0F" transform="translate(1132,489)"/>
<path d="M0 0 C3 2 3 2 3.5625 4.4375 C3.706875 5.283125 3.85125 6.12875 4 7 C4.99 8.485 4.99 8.485 6 10 C5.67 10.99 5.34 11.98 5 13 C4.34 13 3.68 13 3 13 C2.49242138 11.58603098 1.99425075 10.16868271 1.5 8.75 C1.08234375 7.56664062 1.08234375 7.56664062 0.65625 6.359375 C0 4 0 4 0 0 Z " fill="#0D0D0D" transform="translate(1142,580)"/>
<path d="M0 0 C0 0.33 0 0.66 0 1 C-4.29 1.99 -8.58 2.98 -13 4 C-13 3.01 -13 2.02 -13 1 C-8.23947038 -0.97387813 -5.03511899 -1.0070238 0 0 Z " fill="#0C0C0C" transform="translate(1069,454)"/>
<path d="M0 0 C0.33 0 0.66 0 1 0 C1 3.96 1 7.92 1 12 C2.32 11.67 3.64 11.34 5 11 C4.34 12.32 3.68 13.64 3 15 C2.01 15 1.02 15 0 15 C0 10.05 0 5.1 0 0 Z " fill="#0E0E0E" transform="translate(1026,462)"/>
<path d="M0 0 C0.66 0 1.32 0 2 0 C1.67 1.98 1.34 3.96 1 6 C0.34 6 -0.32 6 -1 6 C-0.67 6.99 -0.34 7.98 0 9 C-0.99 9.33 -1.98 9.66 -3 10 C-2.69201674 8.51988629 -2.378482 7.04092675 -2.0625 5.5625 C-1.88847656 4.73878906 -1.71445312 3.91507813 -1.53515625 3.06640625 C-1 1 -1 1 0 0 Z " fill="#0D0D0D" transform="translate(953,590)"/>
<path d="M0 0 C0.33 0 0.66 0 1 0 C1.28571429 8.57142857 1.28571429 8.57142857 -1 12 C-2.45606519 7.47907032 -1.27032841 4.48351204 0 0 Z " fill="#0E0E0E" transform="translate(907,579)"/>
<path d="M0 0 C4.95 0.99 4.95 0.99 10 2 C10.33 3.32 10.66 4.64 11 6 C7.37 4.68 3.74 3.36 0 2 C0 1.34 0 0.68 0 0 Z " fill="#0F100F" transform="translate(917,531)"/>
<path d="M0 0 C3.41021743 0.78697325 6.68885166 1.87119943 10 3 C10 3.66 10 4.32 10 5 C6.37 4.01 2.74 3.02 -1 2 C-0.67 1.34 -0.34 0.68 0 0 Z " fill="#151514" transform="translate(864,518)"/>
<path d="M0 0 C-3.96 0.99 -7.92 1.98 -12 3 C-12 2.34 -12 1.68 -12 1 C-11.34 1 -10.68 1 -10 1 C-10 0.34 -10 -0.32 -10 -1 C-3.375 -2.25 -3.375 -2.25 0 0 Z " fill="#0E0E0E" transform="translate(858,456)"/>
<path d="M0 0 C3.82524236 1.450954 5.19090966 3.38181932 7 7 C7 7.66 7 8.32 7 9 C2.97449681 7.6581656 2.11714364 5.5772427 0 2 C0 1.34 0 0.68 0 0 Z " fill="#0E0E0E" transform="translate(525,553)"/>
<path d="M0 0 C0.66 0 1.32 0 2 0 C3.5078125 1.96875 3.5078125 1.96875 5.125 4.5 C5.66382813 5.3353125 6.20265625 6.170625 6.7578125 7.03125 C7.16773438 7.6809375 7.57765625 8.330625 8 9 C4.47165622 8.39958856 4.09432115 8.12314151 1.75 5.0625 C0 2 0 2 0 0 Z " fill="#101010" transform="translate(455,549)"/>
<path d="M0 0 C3.35620271 1.38877354 5.07298728 2.91677965 7 6 C7 6.66 7 7.32 7 8 C2.60841671 6.5361389 2.12052567 4.02168662 0 0 Z " fill="#111010" transform="translate(569,612)"/>
<path d="M0 0 C0.33 0.66 0.66 1.32 1 2 C0.34 2 -0.32 2 -1 2 C-0.67 3.32 -0.34 4.64 0 6 C-0.99 6.33 -1.98 6.66 -3 7 C-3.33 7.99 -3.66 8.98 -4 10 C-4.33 9.34 -4.66 8.68 -5 8 C-2.51612903 1.25806452 -2.51612903 1.25806452 0 0 Z " fill="#131313" transform="translate(777,414)"/>
<path d="M0 0 C0 3 0 3 0 3 Z M-2 3 C-1.34 3.66 -0.68 4.32 0 5 C-1.65 6.32 -3.3 7.64 -5 9 C-5 6 -5 6 -3.5 4.3125 C-2.7575 3.6628125 -2.7575 3.6628125 -2 3 Z " fill="#181819" transform="translate(569,392)"/>
<path d="M0 0 C2.26171875 0.14453125 2.26171875 0.14453125 4.6875 0.8125 C5.49574219 1.02519531 6.30398438 1.23789062 7.13671875 1.45703125 C8.05904297 1.72580078 8.05904297 1.72580078 9 2 C9 2.33 9 2.66 9 3 C5.04 3 1.08 3 -3 3 C-2.01 2.01 -1.02 1.02 0 0 Z " fill="#F9F2FB" transform="translate(1172,627)"/>
<path d="M0 0 C3.70129644 0.38961015 5.61879622 1.11749016 8 4 C4.26512223 3.5020163 2.18762365 3.12508244 -1 1 C-0.67 0.67 -0.34 0.34 0 0 Z " fill="#121312" transform="translate(1071,496)"/>
<path d="M0 0 C2.64752004 2.57784846 4.94432065 4.91648098 7 8 C6.01 8 5.02 8 4 8 C0 2.74285714 0 2.74285714 0 0 Z " fill="#101010" transform="translate(506,528)"/>
<path d="M0 0 C1.32 0 2.64 0 4 0 C4 0.66 4 1.32 4 2 C5.32 2.33 6.64 2.66 8 3 C7.67 3.66 7.34 4.32 7 5 C4.36 4.01 1.72 3.02 -1 2 C-0.67 1.34 -0.34 0.68 0 0 Z " fill="#0E0E0E" transform="translate(910,456)"/>
</svg>
